<svg xmlns="http://www.w3.org/2000/svg" xmlns:xlink="http://www.w3.org/1999/xlink" version="1.1" width="1624" enable-background="new 0 0 1624 302" xml:space="preserve" height="302"><rect id="backgroundrect" width="100%" height="100%" x="0" y="0" fill="none" stroke="none"/>


















<g class="currentLayer" style=""><title>Layer 1</title><path fill="#FEFEFE" opacity="1.000000" stroke="none" d=" M1.000001,72.000000   C1.000000,48.336166 1.000000,24.672329 1.000000,1.006370   C542.265747,1.004247 1083.531494,1.004247 1624.898682,1.004247   C1624.898682,101.586945 1624.898682,202.174026 1624.898682,303.000000   C1143.970703,303.000000 662.941284,303.000000 181.470184,302.655701   C182.401764,300.861969 183.744125,299.381775 185.152832,297.967682   C234.195572,248.737366 283.335205,199.603165 332.250427,150.246475   C353.399689,128.906311 361.015900,102.939735 355.037079,73.663094   C348.467804,41.495171 329.065125,19.485065 297.848785,9.457541   C266.291565,-0.679465 237.609207,6.073267 213.100754,28.577703   C202.796585,38.039322 193.118271,48.181862 183.129486,57.988419   C181.740555,59.352009 180.202240,60.563461 177.545822,62.881279   C174.190582,58.974960 171.279846,55.066849 167.847794,51.688328   C157.758484,41.756435 148.296646,30.937569 137.100754,22.423088   C91.649010,-12.143022 26.559210,6.870229 5.938089,60.142944   C4.393057,64.134392 2.650653,68.049438 1.000001,72.000000  M722.963440,209.409546   C741.268311,210.437088 755.773315,203.385864 764.652161,187.426697   C777.141479,164.977966 777.354553,141.281570 766.327698,118.445007   C752.225586,89.239738 713.609314,88.371170 698.190491,106.982391   C697.766968,107.493568 697.018005,107.735092 696.099121,108.300156   C696.099121,90.645889 696.099121,73.540443 696.099121,56.330521   C682.216125,56.330521 668.510620,56.330521 654.883301,56.330521   C654.883301,106.578667 654.883301,156.494659 654.883301,206.584198   C668.285645,206.584198 681.489380,206.584198 695.178528,206.584198   C695.178528,202.910751 695.178528,199.562729 695.178528,195.475815   C702.642700,204.313187 711.437805,208.711014 722.963440,209.409546  M1256.461182,207.499741   C1256.461182,218.931900 1256.461182,230.364075 1256.461182,241.756989   C1270.670166,241.756989 1284.262573,241.756989 1298.245850,241.756989   C1298.245850,226.476105 1298.245850,211.439056 1298.245850,195.681641   C1299.433960,196.636322 1300.054565,197.085464 1300.619507,197.596054   C1323.723145,218.474945 1357.398926,211.762665 1369.654907,183.123627   C1378.492188,162.472672 1378.112183,141.140762 1368.705078,120.656631   C1359.400269,100.395256 1339.018433,91.052811 1317.315918,96.008171   C1309.375244,97.821274 1302.927002,102.179749 1296.845947,108.926476   C1296.845947,104.565285 1296.845947,101.319031 1296.845947,97.860161   C1283.255737,97.860161 1270.042114,97.860161 1256.930786,97.860161   C1256.719849,98.489136 1256.527344,98.795486 1256.527100,99.102013   C1256.495239,134.901245 1256.477783,170.700485 1256.461182,207.499741  M1239.241089,148.500122   C1239.241089,131.601120 1239.241089,114.702118 1239.241089,97.825775   C1224.890625,97.825775 1211.293213,97.825775 1197.301147,97.825775   C1197.301147,99.740059 1197.301147,101.369431 1197.301025,102.998810   C1197.300415,119.327705 1197.421509,135.658081 1197.223511,151.984573   C1197.165649,156.765808 1196.660889,161.647720 1195.536011,166.283295   C1194.109253,172.161911 1190.397949,174.661804 1184.296143,175.087463   C1172.917847,175.881226 1167.904175,171.353043 1167.839966,159.818268   C1167.735229,140.990646 1167.811035,122.162003 1167.810791,103.333794   C1167.810791,101.557358 1167.810791,99.780922 1167.810791,97.854858   C1153.379639,97.854858 1139.472046,97.854858 1126.001953,97.854858   C1126.001953,123.971169 1125.381104,149.787949 1126.269775,175.552689   C1126.699463,188.010849 1132.004639,199.097504 1144.145874,205.346481   C1162.171021,214.623993 1183.802368,210.487625 1197.090454,195.167816   C1197.338867,194.881393 1197.806519,194.785049 1198.718750,194.323105   C1198.718750,198.666534 1198.718750,202.578842 1198.718750,206.652328   C1212.413208,206.652328 1225.651123,206.652328 1239.241089,206.652328   C1239.241089,187.429413 1239.241089,168.464783 1239.241089,148.500122  M533.920898,188.546417   C535.973511,190.722992 537.872925,193.072586 540.103516,195.048203   C555.282288,208.491821 573.282043,211.863327 592.733154,209.139511   C615.037842,206.016144 631.404724,194.267365 638.544434,172.780411   C645.909973,150.613739 643.551270,129.159134 626.619934,111.455696   C612.541138,96.734886 594.444458,92.972427 574.846985,94.844971   C552.991211,96.933327 535.912415,106.967255 527.153259,127.453903   C518.210144,148.370865 519.922546,169.006256 533.920898,188.546417  M1496.857544,179.255035   C1505.049316,160.727005 1505.711670,141.918747 1496.390503,123.891861   C1485.920288,103.642235 1467.714111,95.333153 1445.550537,94.347145   C1402.365723,92.425941 1373.254639,128.335587 1385.218750,169.854385   C1392.186401,194.034592 1409.843994,206.587631 1434.387817,209.479813   C1459.746704,212.468079 1483.752441,203.438644 1496.857544,179.255035  M941.499878,161.212357   C957.566833,161.212357 973.633850,161.212357 989.672791,161.212357   C989.672791,158.047974 989.792664,155.719940 989.654724,153.407272   C987.700867,120.646065 969.817322,99.642090 939.113708,95.487663   C899.091675,90.072388 872.381409,115.645119 869.470764,145.699799   C867.608093,164.933487 871.610901,182.249756 887.046692,195.276367   C910.081482,214.715790 949.275635,215.032700 972.900024,196.166504   C979.985107,190.508392 984.749084,183.311676 987.281921,173.999298   C974.596436,173.999298 962.324341,173.938232 950.055176,174.096573   C948.867432,174.111908 947.487549,175.285294 946.552673,176.261734   C940.136230,182.963776 930.680847,185.048279 921.752563,181.595383   C914.085144,178.630066 909.683716,171.418549 909.612427,161.212357   C919.905273,161.212357 930.202576,161.212357 941.499878,161.212357  M1619.124268,164.537842   C1617.293457,155.025467 1612.119385,147.636520 1603.156128,144.278458   C1593.742920,140.751740 1583.798584,138.623901 1574.051392,136.014603   C1568.294800,134.473557 1562.301270,133.632065 1556.769165,131.538223   C1554.841309,130.808487 1552.852051,127.199120 1552.980591,125.028534   C1553.085693,123.252396 1556.038086,120.922852 1558.192871,120.172234   C1560.903809,119.227852 1564.098145,119.396675 1567.065308,119.522278   C1572.416260,119.748772 1576.829224,121.467415 1578.270874,127.490845   C1578.475708,128.346649 1580.105103,129.432755 1581.086548,129.444214   C1592.713135,129.579956 1604.341919,129.531601 1616.455811,129.531601   C1615.466187,116.782257 1610.721069,106.994942 1599.343140,101.243690   C1590.103394,96.573288 1580.118286,94.825111 1569.903442,94.495308   C1555.159302,94.019264 1540.529785,94.750076 1527.206299,102.126083   C1516.263916,108.183914 1511.279419,117.676384 1511.666992,130.167618   C1512.055542,142.691101 1518.245361,151.312439 1529.498779,156.068176   C1535.575439,158.636215 1542.076782,160.267853 1548.477173,161.983810   C1556.657593,164.176987 1565.033203,165.699646 1573.096191,168.237152   C1575.388672,168.958633 1577.912964,171.952011 1578.506470,174.354233   C1579.380005,177.890396 1576.751831,180.562775 1573.351318,181.920456   C1571.980103,182.467926 1570.496338,182.855774 1569.030151,183.024521   C1557.152832,184.391678 1552.876221,181.797836 1548.303101,170.742554   C1535.328491,170.742554 1522.450195,170.742554 1509.424561,170.742554   C1511.191406,189.251999 1520.669800,201.455872 1538.196899,205.731613   C1548.714844,208.297516 1559.848389,208.893021 1570.739868,209.216995   C1581.285156,209.530701 1591.568726,207.057449 1601.001953,201.969788   C1615.255493,194.282242 1621.845215,181.006058 1619.124268,164.537842  M485.858276,97.550766   C479.132385,96.508202 472.434052,94.854439 465.674866,94.549416   C451.288391,93.900208 436.985138,94.770332 423.888245,101.780251   C412.073578,108.103874 406.973663,118.139801 407.800171,131.451035   C408.598145,144.302475 415.838928,152.164139 427.141327,156.896896   C430.341858,158.237076 433.726257,159.200317 437.096588,160.061417   C447.558624,162.734467 458.057159,165.264450 468.535645,167.873520   C472.059692,168.750977 474.778687,170.617676 474.755005,174.595901   C474.731323,178.571716 472.293152,180.865799 468.656647,182.212265   C457.573578,186.315826 448.494995,181.982422 444.490051,170.663727   C431.535858,170.663727 418.622955,170.663727 405.483856,170.663727   C407.126221,188.377045 415.964539,199.995911 432.604980,205.450684   C446.987244,210.165192 461.721710,210.399368 476.552246,208.413818   C486.422211,207.092392 495.524536,203.795013 503.581818,197.674332   C520.514282,184.811676 521.777466,152.013779 496.500763,143.003922   C487.955200,139.957886 478.928864,138.250015 470.104126,136.001801   C464.327271,134.530075 458.348022,133.634872 452.815613,131.540588   C450.893463,130.812958 448.920471,127.191299 449.051147,125.016441   C449.157837,123.240913 452.104004,120.966682 454.258362,120.157776   C456.787689,119.208092 459.833252,119.346413 462.634827,119.469673   C468.102173,119.710228 472.761719,121.208916 474.396118,127.487984   C474.653229,128.475632 477.173096,129.426865 478.662659,129.451996   C488.826172,129.623459 498.993958,129.557007 509.160217,129.522278   C510.232239,129.518616 511.303284,129.222946 512.345703,129.067108   C510.983704,112.044998 503.558868,103.130333 485.858276,97.550766  M1073.243652,207.936523   C1097.975830,202.480087 1112.146973,183.236465 1113.410645,163.198395   C1100.304932,163.198395 1087.204224,163.198395 1073.978638,163.198395   C1073.547119,164.791092 1073.219238,166.245773 1072.759155,167.657364   C1070.515259,174.542801 1065.760742,178.456497 1059.079712,178.970871   C1050.895508,179.600983 1044.768799,176.702240 1042.008423,169.652023   C1037.194458,157.357132 1037.473145,144.850830 1043.103516,132.868362   C1046.230225,126.214081 1052.403320,124.182533 1059.439819,124.895264   C1065.884888,125.548080 1070.060669,129.178146 1072.155640,135.263535   C1072.570312,136.467972 1072.983643,137.672867 1073.285522,138.551575   C1086.736450,138.551575 1099.787476,138.551575 1112.997803,138.551575   C1112.162109,130.069977 1109.661255,122.584465 1104.717529,116.056686   C1094.821655,102.989906 1081.103516,97.032967 1065.246094,95.406021   C1028.712036,91.657707 1001.429504,111.722374 997.268127,145.022491   C994.177429,169.755142 1005.689514,193.045197 1027.503296,203.416931   C1041.870239,210.247910 1056.990356,210.817535 1073.243652,207.936523  M819.426270,206.912445   C821.864441,206.912445 824.302612,206.912445 827.067017,206.912445   C827.067017,189.563812 826.875916,172.764954 827.118591,155.972366   C827.382019,137.746933 839.967468,127.511696 857.949646,130.556854   C861.453552,131.150208 864.915894,131.989029 868.393188,132.713745   C868.393188,120.381607 868.393188,108.431549 868.393188,96.257927   C850.110352,91.697899 835.830261,96.762245 825.245972,114.358932   C825.245972,107.735527 825.245972,102.851997 825.245972,97.825424   C811.768738,97.825424 798.684937,97.825424 785.609375,97.825424   C785.609375,134.311707 785.609375,170.509476 785.609375,206.912048   C796.804138,206.912048 807.625061,206.912048 819.426270,206.912445  z" id="svg_1"/><path fill="#E84940" opacity="1.000000" stroke="none" d=" M1.000001,72.468658   C2.650653,68.049438 4.393057,64.134392 5.938089,60.142944   C26.559210,6.870229 91.649010,-12.143022 137.100754,22.423088   C148.296646,30.937569 157.758484,41.756435 167.847794,51.688328   C171.279846,55.066849 174.190582,58.974960 177.545822,62.881279   C180.202240,60.563461 181.740555,59.352009 183.129486,57.988419   C193.118271,48.181862 202.796585,38.039322 213.100754,28.577703   C237.609207,6.073267 266.291565,-0.679465 297.848785,9.457541   C329.065125,19.485065 348.467804,41.495171 355.037079,73.663094   C361.015900,102.939735 353.399689,128.906311 332.250427,150.246475   C283.335205,199.603165 234.195572,248.737366 185.152832,297.967682   C183.744125,299.381775 182.401764,300.861969 181.014252,302.655701   C179.933334,303.000000 178.866653,303.000000 177.255188,302.700317   C169.055954,294.989868 161.401489,287.579132 152.668610,279.124329   C155.486420,276.933136 157.793427,275.505524 159.657501,273.636200   C209.198303,223.956055 258.773743,174.309967 308.156036,124.472527   C327.385803,105.065536 325.824768,71.297478 305.320892,53.272270   C285.067352,35.467152 256.314697,35.738869 237.012466,54.570728   C208.266113,82.616554 179.932465,111.084984 151.350952,139.300385   C140.934189,149.583740 120.829536,150.166122 110.663719,140.223434   C97.440865,127.290794 84.501053,114.064209 71.614723,100.793907   C64.846649,93.824165 65.194786,83.344460 72.000877,76.544647   C78.515083,70.036453 88.923439,69.707558 95.859657,76.290306   C106.252914,86.153923 116.378632,96.300964 126.531685,106.414268   C127.804619,107.682228 128.552902,109.476913 129.360992,110.740868   C138.025787,102.226639 145.582886,94.800873 153.244843,87.272064   C152.904129,86.778740 152.606689,86.167732 152.151535,85.715431   C141.276642,74.908646 130.642075,63.842388 119.422791,53.404835   C108.496262,43.239635 95.279701,39.069374 80.318550,40.904030   C60.086914,43.384995 45.870434,54.137695 38.970562,73.130463   C32.049282,92.182144 35.312382,110.074944 49.497643,124.998077   C61.893394,138.038620 74.816223,150.586151 87.732620,163.118088   C90.905647,166.196655 94.732552,168.797180 98.652466,170.874817   C112.733566,178.338135 127.834099,179.625320 143.343201,177.204910   C155.293900,175.339813 165.986832,170.765198 174.722672,162.065140   C186.647858,150.188812 198.716537,138.456757 210.682419,126.621109   C227.625168,109.862740 244.462555,92.997162 261.489288,76.324760   C267.204620,70.728371 275.605377,70.066093 282.182495,74.090919   C288.980286,78.250786 292.902405,86.759544 289.707397,93.875610   C287.480591,98.835266 283.289734,103.111618 279.353638,107.074936   C234.963577,151.772110 190.445312,196.341919 145.985306,240.969666   C140.948990,246.024948 136.058655,251.225647 131.095352,256.364380   C129.948944,255.397049 129.407867,255.005798 128.942856,254.538818   C93.547264,218.993942 58.116894,183.483551 22.793436,147.867126   C12.697431,137.687393 6.615202,125.200020 2.992049,111.426315   C2.504072,109.571236 1.672479,107.806549 1.000000,106.000000   C1.000000,94.979103 1.000000,83.958214 1.000001,72.468658  z" id="svg_2"/><path fill="#FFFDFD" opacity="1.000000" stroke="none" d=" M1.000000,106.468658   C1.672479,107.806549 2.504072,109.571236 2.992049,111.426315   C6.615202,125.200020 12.697431,137.687393 22.793436,147.867126   C58.116894,183.483551 93.547264,218.993942 128.942856,254.538818   C129.407867,255.005798 129.948944,255.397049 131.095352,256.364380   C136.058655,251.225647 140.948990,246.024948 145.985306,240.969666   C190.445312,196.341919 234.963577,151.772110 279.353638,107.074936   C283.289734,103.111618 287.480591,98.835266 289.707397,93.875610   C292.902405,86.759544 288.980286,78.250786 282.182495,74.090919   C275.605377,70.066093 267.204620,70.728371 261.489288,76.324760   C244.462555,92.997162 227.625168,109.862740 210.682419,126.621109   C198.716537,138.456757 186.647858,150.188812 174.722672,162.065140   C165.986832,170.765198 155.293900,175.339813 143.343201,177.204910   C127.834099,179.625320 112.733566,178.338135 98.652466,170.874817   C94.732552,168.797180 90.905647,166.196655 87.732620,163.118088   C74.816223,150.586151 61.893394,138.038620 49.497643,124.998077   C35.312382,110.074944 32.049282,92.182144 38.970562,73.130463   C45.870434,54.137695 60.086914,43.384995 80.318550,40.904030   C95.279701,39.069374 108.496262,43.239635 119.422791,53.404835   C130.642075,63.842388 141.276642,74.908646 152.151535,85.715431   C152.606689,86.167732 152.904129,86.778740 153.244843,87.272064   C145.582886,94.800873 138.025787,102.226639 129.360992,110.740868   C128.552902,109.476913 127.804619,107.682228 126.531685,106.414268   C116.378632,96.300964 106.252914,86.153923 95.859657,76.290306   C88.923439,69.707558 78.515083,70.036453 72.000877,76.544647   C65.194786,83.344460 64.846649,93.824165 71.614723,100.793907   C84.501053,114.064209 97.440865,127.290794 110.663719,140.223434   C120.829536,150.166122 140.934189,149.583740 151.350952,139.300385   C179.932465,111.084984 208.266113,82.616554 237.012466,54.570728   C256.314697,35.738869 285.067352,35.467152 305.320892,53.272270   C325.824768,71.297478 327.385803,105.065536 308.156036,124.472527   C258.773743,174.309967 209.198303,223.956055 159.657501,273.636200   C157.793427,275.505524 155.486420,276.933136 152.668610,279.124329   C161.401489,287.579132 169.055954,294.989868 176.855194,302.700317   C118.402199,303.000000 59.804398,303.000000 1.000000,303.000000   C1.000000,237.645920 1.000000,172.291611 1.000000,106.468658  z" id="svg_3"/><path fill="#010101" opacity="1.000000" stroke="none" d=" M722.529785,209.380096   C711.437805,208.711014 702.642700,204.313187 695.178528,195.475815   C695.178528,199.562729 695.178528,202.910751 695.178528,206.584198   C681.489380,206.584198 668.285645,206.584198 654.883301,206.584198   C654.883301,156.494659 654.883301,106.578667 654.883301,56.330521   C668.510620,56.330521 682.216125,56.330521 696.099121,56.330521   C696.099121,73.540443 696.099121,90.645889 696.099121,108.300156   C697.018005,107.735092 697.766968,107.493568 698.190491,106.982391   C713.609314,88.371170 752.225586,89.239738 766.327698,118.445007   C777.354553,141.281570 777.141479,164.977966 764.652161,187.426697   C755.773315,203.385864 741.268311,210.437088 722.529785,209.380096  M720.857788,128.196579   C709.136841,123.917404 699.681152,128.493683 696.453369,140.280533   C694.164062,148.640518 694.430420,157.085281 697.238708,165.289856   C699.720337,172.540131 705.305359,176.143875 713.298767,176.201950   C721.463074,176.261261 726.712830,172.897095 729.308533,165.400085   C732.329529,156.674911 732.654480,147.630859 729.433044,139.039795   C727.967834,135.132278 724.216431,132.082001 720.857788,128.196579  z" id="svg_4"/><path fill="#030303" opacity="1.000000" stroke="none" d=" M1256.460449,206.999725   C1256.477783,170.700485 1256.495239,134.901245 1256.527100,99.102013   C1256.527344,98.795486 1256.719849,98.489136 1256.930786,97.860161   C1270.042114,97.860161 1283.255737,97.860161 1296.845947,97.860161   C1296.845947,101.319031 1296.845947,104.565285 1296.845947,108.926476   C1302.927002,102.179749 1309.375244,97.821274 1317.315918,96.008171   C1339.018433,91.052811 1359.400269,100.395256 1368.705078,120.656631   C1378.112183,141.140762 1378.492188,162.472672 1369.654907,183.123627   C1357.398926,211.762665 1323.723145,218.474945 1300.619507,197.596054   C1300.054565,197.085464 1299.433960,196.636322 1298.245850,195.681641   C1298.245850,211.439056 1298.245850,226.476105 1298.245850,241.756989   C1284.262573,241.756989 1270.670166,241.756989 1256.461182,241.756989   C1256.461182,230.364075 1256.461182,218.931900 1256.460449,206.999725  M1297.009521,151.632019   C1297.605469,156.385147 1297.645630,161.293335 1298.919067,165.857391   C1301.189697,173.994873 1307.348145,178.033615 1315.742432,177.848495   C1323.908447,177.668411 1329.572876,173.501648 1331.889648,165.499969   C1334.203857,157.507004 1334.266235,149.366577 1332.066040,141.339233   C1329.650269,132.525375 1323.707764,128.102768 1314.990356,128.212357   C1306.366089,128.320755 1300.423584,133.044403 1298.257935,141.828918   C1297.546997,144.712799 1297.424683,147.741821 1297.009521,151.632019  z" id="svg_5"/><path fill="#020202" opacity="1.000000" stroke="none" d=" M1239.241089,149.000137   C1239.241089,168.464783 1239.241089,187.429413 1239.241089,206.652328   C1225.651123,206.652328 1212.413208,206.652328 1198.718750,206.652328   C1198.718750,202.578842 1198.718750,198.666534 1198.718750,194.323105   C1197.806519,194.785049 1197.338867,194.881393 1197.090454,195.167816   C1183.802368,210.487625 1162.171021,214.623993 1144.145874,205.346481   C1132.004639,199.097504 1126.699463,188.010849 1126.269775,175.552689   C1125.381104,149.787949 1126.001953,123.971169 1126.001953,97.854858   C1139.472046,97.854858 1153.379639,97.854858 1167.810791,97.854858   C1167.810791,99.780922 1167.810791,101.557358 1167.810791,103.333794   C1167.811035,122.162003 1167.735229,140.990646 1167.839966,159.818268   C1167.904175,171.353043 1172.917847,175.881226 1184.296143,175.087463   C1190.397949,174.661804 1194.109253,172.161911 1195.536011,166.283295   C1196.660889,161.647720 1197.165649,156.765808 1197.223511,151.984573   C1197.421509,135.658081 1197.300415,119.327705 1197.301025,102.998810   C1197.301147,101.369431 1197.301147,99.740059 1197.301147,97.825775   C1211.293213,97.825775 1224.890625,97.825775 1239.241089,97.825775   C1239.241089,114.702118 1239.241089,131.601120 1239.241089,149.000137  z" id="svg_6"/><path fill="#020202" opacity="1.000000" stroke="none" d=" M533.698853,188.267319   C519.922546,169.006256 518.210144,148.370865 527.153259,127.453903   C535.912415,106.967255 552.991211,96.933327 574.846985,94.844971   C594.444458,92.972427 612.541138,96.734886 626.619934,111.455696   C643.551270,129.159134 645.909973,150.613739 638.544434,172.780411   C631.404724,194.267365 615.037842,206.016144 592.733154,209.139511   C573.282043,211.863327 555.282288,208.491821 540.103516,195.048203   C537.872925,193.072586 535.973511,190.722992 533.698853,188.267319  M594.191528,174.659027   C601.673950,167.267090 601.845703,141.126785 595.994385,132.186829   C591.933350,125.982147 586.118835,124.211639 579.174438,124.952492   C572.155701,125.701271 568.109985,130.149521 566.187073,136.424454   C563.099548,146.499832 562.954468,156.775757 565.933167,166.917175   C569.860107,180.286545 583.008728,184.149368 594.191528,174.659027  z" id="svg_7"/><path fill="#020202" opacity="1.000000" stroke="none" d=" M1496.678955,179.582809   C1483.752441,203.438644 1459.746704,212.468079 1434.387817,209.479813   C1409.843994,206.587631 1392.186401,194.034592 1385.218750,169.854385   C1373.254639,128.335587 1402.365723,92.425941 1445.550537,94.347145   C1467.714111,95.333153 1485.920288,103.642235 1496.390503,123.891861   C1505.711670,141.918747 1505.049316,160.727005 1496.678955,179.582809  M1451.314575,126.889458   C1439.400513,121.687881 1429.637207,125.857841 1426.464966,138.021713   C1423.910278,147.817810 1423.854858,157.796112 1426.893799,167.580017   C1429.438354,175.771805 1435.042236,179.964493 1442.965576,179.932068   C1450.571533,179.900940 1456.391235,175.670975 1458.724609,167.768265   C1461.703003,157.680634 1462.155640,147.342987 1458.802368,137.322464   C1457.563965,133.622208 1454.318726,130.593536 1451.314575,126.889458  z" id="svg_8"/><path fill="#020202" opacity="1.000000" stroke="none" d=" M940.999878,161.212357   C930.202576,161.212357 919.905273,161.212357 909.612427,161.212357   C909.683716,171.418549 914.085144,178.630066 921.752563,181.595383   C930.680847,185.048279 940.136230,182.963776 946.552673,176.261734   C947.487549,175.285294 948.867432,174.111908 950.055176,174.096573   C962.324341,173.938232 974.596436,173.999298 987.281921,173.999298   C984.749084,183.311676 979.985107,190.508392 972.900024,196.166504   C949.275635,215.032700 910.081482,214.715790 887.046692,195.276367   C871.610901,182.249756 867.608093,164.933487 869.470764,145.699799   C872.381409,115.645119 899.091675,90.072388 939.113708,95.487663   C969.817322,99.642090 987.700867,120.646065 989.654724,153.407272   C989.792664,155.719940 989.672791,158.047974 989.672791,161.212357   C973.633850,161.212357 957.566833,161.212357 940.999878,161.212357  M919.703918,123.927269   C913.417053,127.433960 910.689514,132.996262 909.852722,139.947342   C923.159668,139.947342 935.886658,139.947342 948.645874,139.947342   C946.661438,124.223869 935.782104,118.031616 919.703918,123.927269  z" id="svg_9"/><path fill="#030303" opacity="1.000000" stroke="none" d=" M1619.195312,164.957703   C1621.845215,181.006058 1615.255493,194.282242 1601.001953,201.969788   C1591.568726,207.057449 1581.285156,209.530701 1570.739868,209.216995   C1559.848389,208.893021 1548.714844,208.297516 1538.196899,205.731613   C1520.669800,201.455872 1511.191406,189.251999 1509.424561,170.742554   C1522.450195,170.742554 1535.328491,170.742554 1548.303101,170.742554   C1552.876221,181.797836 1557.152832,184.391678 1569.030151,183.024521   C1570.496338,182.855774 1571.980103,182.467926 1573.351318,181.920456   C1576.751831,180.562775 1579.380005,177.890396 1578.506470,174.354233   C1577.912964,171.952011 1575.388672,168.958633 1573.096191,168.237152   C1565.033203,165.699646 1556.657593,164.176987 1548.477173,161.983810   C1542.076782,160.267853 1535.575439,158.636215 1529.498779,156.068176   C1518.245361,151.312439 1512.055542,142.691101 1511.666992,130.167618   C1511.279419,117.676384 1516.263916,108.183914 1527.206299,102.126083   C1540.529785,94.750076 1555.159302,94.019264 1569.903442,94.495308   C1580.118286,94.825111 1590.103394,96.573288 1599.343140,101.243690   C1610.721069,106.994942 1615.466187,116.782257 1616.455811,129.531601   C1604.341919,129.531601 1592.713135,129.579956 1581.086548,129.444214   C1580.105103,129.432755 1578.475708,128.346649 1578.270874,127.490845   C1576.829224,121.467415 1572.416260,119.748772 1567.065308,119.522278   C1564.098145,119.396675 1560.903809,119.227852 1558.192871,120.172234   C1556.038086,120.922852 1553.085693,123.252396 1552.980591,125.028534   C1552.852051,127.199120 1554.841309,130.808487 1556.769165,131.538223   C1562.301270,133.632065 1568.294800,134.473557 1574.051392,136.014603   C1583.798584,138.623901 1593.742920,140.751740 1603.156128,144.278458   C1612.119385,147.636520 1617.293457,155.025467 1619.195312,164.957703  z" id="svg_10"/><path fill="#030303" opacity="1.000000" stroke="none" d=" M486.237000,97.690979   C503.558868,103.130333 510.983704,112.044998 512.345703,129.067108   C511.303284,129.222946 510.232239,129.518616 509.160217,129.522278   C498.993958,129.557007 488.826172,129.623459 478.662659,129.451996   C477.173096,129.426865 474.653229,128.475632 474.396118,127.487984   C472.761719,121.208916 468.102173,119.710228 462.634827,119.469673   C459.833252,119.346413 456.787689,119.208092 454.258362,120.157776   C452.104004,120.966682 449.157837,123.240913 449.051147,125.016441   C448.920471,127.191299 450.893463,130.812958 452.815613,131.540588   C458.348022,133.634872 464.327271,134.530075 470.104126,136.001801   C478.928864,138.250015 487.955200,139.957886 496.500763,143.003922   C521.777466,152.013779 520.514282,184.811676 503.581818,197.674332   C495.524536,203.795013 486.422211,207.092392 476.552246,208.413818   C461.721710,210.399368 446.987244,210.165192 432.604980,205.450684   C415.964539,199.995911 407.126221,188.377045 405.483856,170.663727   C418.622955,170.663727 431.535858,170.663727 444.490051,170.663727   C448.494995,181.982422 457.573578,186.315826 468.656647,182.212265   C472.293152,180.865799 474.731323,178.571716 474.755005,174.595901   C474.778687,170.617676 472.059692,168.750977 468.535645,167.873520   C458.057159,165.264450 447.558624,162.734467 437.096588,160.061417   C433.726257,159.200317 430.341858,158.237076 427.141327,156.896896   C415.838928,152.164139 408.598145,144.302475 407.800171,131.451035   C406.973663,118.139801 412.073578,108.103874 423.888245,101.780251   C436.985138,94.770332 451.288391,93.900208 465.674866,94.549416   C472.434052,94.854439 479.132385,96.508202 486.237000,97.690979  z" id="svg_11"/><path fill="#020202" opacity="1.000000" stroke="none" d=" M1072.822754,207.988541   C1056.990356,210.817535 1041.870239,210.247910 1027.503296,203.416931   C1005.689514,193.045197 994.177429,169.755142 997.268127,145.022491   C1001.429504,111.722374 1028.712036,91.657707 1065.246094,95.406021   C1081.103516,97.032967 1094.821655,102.989906 1104.717529,116.056686   C1109.661255,122.584465 1112.162109,130.069977 1112.997803,138.551575   C1099.787476,138.551575 1086.736450,138.551575 1073.285522,138.551575   C1072.983643,137.672867 1072.570312,136.467972 1072.155640,135.263535   C1070.060669,129.178146 1065.884888,125.548080 1059.439819,124.895264   C1052.403320,124.182533 1046.230225,126.214081 1043.103516,132.868362   C1037.473145,144.850830 1037.194458,157.357132 1042.008423,169.652023   C1044.768799,176.702240 1050.895508,179.600983 1059.079712,178.970871   C1065.760742,178.456497 1070.515259,174.542801 1072.759155,167.657364   C1073.219238,166.245773 1073.547119,164.791092 1073.978638,163.198395   C1087.204224,163.198395 1100.304932,163.198395 1113.410645,163.198395   C1112.146973,183.236465 1097.975830,202.480087 1072.822754,207.988541  z" id="svg_12"/><path fill="#030303" opacity="1.000000" stroke="none" d=" M818.936096,206.912247   C807.625061,206.912048 796.804138,206.912048 785.609375,206.912048   C785.609375,170.509476 785.609375,134.311707 785.609375,97.825424   C798.684937,97.825424 811.768738,97.825424 825.245972,97.825424   C825.245972,102.851997 825.245972,107.735527 825.245972,114.358932   C835.830261,96.762245 850.110352,91.697899 868.393188,96.257927   C868.393188,108.431549 868.393188,120.381607 868.393188,132.713745   C864.915894,131.989029 861.453552,131.150208 857.949646,130.556854   C839.967468,127.511696 827.382019,137.746933 827.118591,155.972366   C826.875916,172.764954 827.067017,189.563812 827.067017,206.912445   C824.302612,206.912445 821.864441,206.912445 818.936096,206.912247  z" id="svg_13"/><path fill="#FCFCFC" opacity="1.000000" stroke="none" d=" M721.179932,128.419739   C724.216431,132.082001 727.967834,135.132278 729.433044,139.039795   C732.654480,147.630859 732.329529,156.674911 729.308533,165.400085   C726.712830,172.897095 721.463074,176.261261 713.298767,176.201950   C705.305359,176.143875 699.720337,172.540131 697.238708,165.289856   C694.430420,157.085281 694.164062,148.640518 696.453369,140.280533   C699.681152,128.493683 709.136841,123.917404 721.179932,128.419739  z" id="svg_14"/><path fill="#FBFBFB" opacity="1.000000" stroke="none" d=" M1297.021362,151.168243   C1297.424683,147.741821 1297.546997,144.712799 1298.257935,141.828918   C1300.423584,133.044403 1306.366089,128.320755 1314.990356,128.212357   C1323.707764,128.102768 1329.650269,132.525375 1332.066040,141.339233   C1334.266235,149.366577 1334.203857,157.507004 1331.889648,165.499969   C1329.572876,173.501648 1323.908447,177.668411 1315.742432,177.848495   C1307.348145,178.033615 1301.189697,173.994873 1298.919067,165.857391   C1297.645630,161.293335 1297.605469,156.385147 1297.021362,151.168243  z" id="svg_15"/><path fill="#FCFCFC" opacity="1.000000" stroke="none" d=" M593.970825,174.955475   C583.008728,184.149368 569.860107,180.286545 565.933167,166.917175   C562.954468,156.775757 563.099548,146.499832 566.187073,136.424454   C568.109985,130.149521 572.155701,125.701271 579.174438,124.952492   C586.118835,124.211639 591.933350,125.982147 595.994385,132.186829   C601.845703,141.126785 601.673950,167.267090 593.970825,174.955475  z" id="svg_16"/><path fill="#FCFCFC" opacity="1.000000" stroke="none" d=" M1451.651733,127.074005   C1454.318726,130.593536 1457.563965,133.622208 1458.802368,137.322464   C1462.155640,147.342987 1461.703003,157.680634 1458.724609,167.768265   C1456.391235,175.670975 1450.571533,179.900940 1442.965576,179.932068   C1435.042236,179.964493 1429.438354,175.771805 1426.893799,167.580017   C1423.854858,157.796112 1423.910278,147.817810 1426.464966,138.021713   C1429.637207,125.857841 1439.400513,121.687881 1451.651733,127.074005  z" id="svg_17"/><path fill="#FCFCFC" opacity="1.000000" stroke="none" d=" M920.055786,123.763359   C935.782104,118.031616 946.661438,124.223869 948.645874,139.947342   C935.886658,139.947342 923.159668,139.947342 909.852722,139.947342   C910.689514,132.996262 913.417053,127.433960 920.055786,123.763359  z" id="svg_18"/></g></svg>