<svg xmlns="http://www.w3.org/2000/svg" version="1.0" preserveAspectRatio="xMidYMid meet" viewBox="105.05 223.13 796.76 148.87">

<g transform="translate(0.000000,591.000000) scale(0.100000,-0.100000)" fill="#000000" stroke="none">
<path d="M1363 3665 c-143 -39 -241 -131 -293 -272 -19 -53 -22 -77 -18 -156 3 -84 8 -103 40 -168 34 -67 64 -101 320 -357 l283 -282 398 398 c372 372 397 400 397 432 -1 57 -48 98 -98 85 -17 -4 -116 -95 -262 -240 -272 -271 -297 -288 -430 -289 -128 -1 -165 18 -307 157 -144 141 -173 188 -173 282 0 113 70 209 174 240 119 36 179 13 316 -121 l105 -103 -60 -61 -60 -60 -95 94 c-98 98 -132 117 -172 95 -34 -18 -47 -40 -48 -79 0 -30 12 -46 118 -151 92 -92 126 -120 157 -128 83 -22 97 -12 360 249 132 131 255 245 274 255 45 22 126 30 178 16 105 -28 183 -134 183 -245 -1 -110 -4 -114 -438 -548 l-397 -398 60 -60 60 -60 403 402 c374 374 406 408 440 477 36 73 37 78 37 186 0 108 -1 113 -38 187 -103 210 -346 293 -563 194 -42 -19 -87 -56 -164 -131 -58 -58 -110 -105 -115 -105 -5 0 -56 47 -114 104 -59 57 -124 113 -146 124 -102 51 -211 64 -312 37z"/>
<path d="M4190 3045 l0 -375 100 0 100 0 0 32 0 32 28 -26 c35 -35 72 -48 130 -48 137 1 233 121 232 289 -1 155 -79 260 -206 278 -50 7 -121 -16 -149 -47 -10 -11 -22 -20 -27 -20 -4 0 -8 39 -7 88 0 48 0 106 0 130 l-1 42 -100 0 -100 0 0 -375z m336 17 c30 -21 44 -59 44 -120 0 -57 -3 -67 -29 -93 -31 -31 -53 -35 -95 -19 -66 25 -77 155 -18 223 15 17 77 24 98 9z"/>
<path d="M3104 3217 c-68 -18 -108 -48 -128 -97 -21 -53 -20 -75 5 -126 25 -53 68 -75 197 -105 115 -27 142 -48 106 -83 -22 -23 -96 -21 -117 2 -10 10 -17 24 -17 30 0 8 -31 12 -101 12 l-101 0 7 -27 c29 -117 130 -171 303 -161 182 11 281 121 224 250 -24 56 -75 83 -204 109 -49 10 -96 23 -104 30 -20 16 -17 36 5 49 41 21 111 5 111 -25 0 -12 18 -15 96 -15 l97 0 -7 33 c-16 84 -92 128 -229 133 -54 2 -113 -2 -143 -9z"/>
<path d="M3732 3216 c-97 -32 -175 -116 -188 -203 -16 -111 12 -218 73 -274 61 -58 109 -74 218 -74 84 0 107 4 141 22 53 28 99 74 127 127 32 59 32 203 0 262 -30 57 -79 103 -133 127 -57 26 -178 32 -238 13z m143 -142 c49 -19 68 -178 28 -232 -28 -38 -67 -50 -101 -31 -70 38 -84 186 -25 251 16 18 66 24 98 12z"/>
<path d="M5142 3217 c-18 -5 -46 -25 -62 -44 -16 -18 -32 -33 -35 -33 -3 0 -5 16 -5 35 l0 35 -95 0 -95 0 0 -270 0 -270 100 0 100 0 0 129 c0 157 5 184 41 220 31 32 72 41 130 31 l39 -7 0 87 c0 71 -3 89 -16 94 -22 8 -63 6 -102 -7z"/>
<path d="M5487 3220 c-83 -21 -153 -74 -189 -145 -27 -50 -36 -167 -18 -230 16 -58 70 -119 134 -153 46 -24 61 -27 156 -27 114 0 161 15 223 74 26 23 57 71 57 86 0 3 -45 5 -100 5 -55 0 -100 -4 -100 -8 0 -14 -48 -32 -85 -32 -41 0 -90 41 -99 83 l-6 27 201 0 202 0 -5 63 c-6 70 -40 147 -85 189 -62 59 -196 90 -286 68z m151 -155 c12 -14 22 -35 22 -46 0 -17 -8 -19 -95 -19 -80 0 -95 3 -95 16 0 75 116 109 168 49z"/>
<path d="M6133 3220 c-86 -18 -160 -74 -198 -150 -27 -52 -31 -165 -10 -230 23 -71 84 -131 161 -160 49 -18 73 -21 140 -17 88 5 130 21 182 71 38 35 62 76 73 124 l7 32 -99 0 c-97 0 -99 0 -105 -25 -13 -51 -85 -72 -131 -40 -53 37 -55 183 -2 236 36 36 111 20 129 -27 9 -23 13 -24 105 -24 89 0 95 1 95 20 0 60 -86 157 -157 178 -56 17 -142 22 -190 12z"/>
<path d="M7497 3215 c-22 -7 -50 -23 -63 -36 l-24 -22 0 26 0 27 -100 0 -100 0 0 -355 0 -355 100 0 100 0 1 93 c1 50 2 99 3 107 1 19 20 15 56 -12 40 -29 127 -36 185 -13 57 21 108 80 130 152 21 66 16 196 -9 256 -49 114 -170 172 -279 132z m75 -186 c28 -37 28 -141 1 -177 -38 -51 -120 -46 -148 9 -17 33 -20 106 -5 145 16 40 39 54 89 51 34 -1 48 -8 63 -28z"/>
<path d="M8032 3216 c-97 -32 -175 -116 -188 -203 -33 -221 96 -364 314 -351 116 7 193 55 245 152 18 33 22 57 22 131 0 74 -4 98 -22 131 -30 57 -79 103 -133 127 -57 26 -178 32 -238 13z m143 -142 c49 -19 68 -178 28 -232 -28 -38 -67 -50 -101 -31 -70 38 -84 186 -25 251 16 18 66 24 98 12z"/>
<path d="M8624 3217 c-68 -18 -108 -48 -128 -97 -21 -53 -20 -75 5 -126 25 -53 68 -75 197 -105 115 -27 142 -48 106 -83 -22 -23 -96 -21 -117 2 -10 10 -17 24 -17 30 0 8 -31 12 -101 12 l-101 0 7 -27 c29 -117 130 -171 303 -161 182 11 281 121 224 250 -24 56 -75 83 -204 109 -49 10 -96 23 -104 30 -20 16 -17 36 5 49 41 21 111 5 111 -25 0 -12 18 -15 96 -15 l97 0 -7 33 c-16 84 -92 128 -229 133 -54 2 -113 -2 -143 -9z"/>
<path d="M6550 3022 c0 -211 11 -270 57 -314 37 -36 73 -48 139 -48 65 0 112 18 148 56 l26 29 0 -38 0 -37 100 0 100 0 0 270 0 270 -104 0 -105 0 -3 -176 c-3 -198 -6 -204 -79 -204 -63 0 -69 18 -69 212 l0 168 -105 0 -105 0 0 -188z"/>
</g>
</svg>