<svg xmlns="http://www.w3.org/2000/svg" xmlns:xlink="http://www.w3.org/1999/xlink" width="500" zoomAndPan="magnify" viewBox="0 0 375 374.999991" height="500" preserveAspectRatio="xMidYMid meet" version="1.0"><defs><clipPath id="0f436650a4"><path d="M 45 71 L 329 71 L 329 309.878906 L 45 309.878906 Z M 45 71 " clip-rule="nonzero"/></clipPath><clipPath id="795f734d8a"><path d="M 134.273438 170.566406 L 164.417969 170.566406 L 164.417969 196.121094 L 134.273438 196.121094 Z M 134.273438 170.566406 " clip-rule="nonzero"/></clipPath><clipPath id="e823c9263f"><path d="M 149.316406 170.566406 C 141.007812 170.566406 134.273438 176.285156 134.273438 183.34375 C 134.273438 190.398438 141.007812 196.121094 149.316406 196.121094 C 157.628906 196.121094 164.363281 190.398438 164.363281 183.34375 C 164.363281 176.285156 157.628906 170.566406 149.316406 170.566406 Z M 149.316406 170.566406 " clip-rule="nonzero"/></clipPath><clipPath id="9d40eaddb3"><path d="M 126.113281 167.0625 L 172.613281 167.0625 L 172.613281 185.0625 L 126.113281 185.0625 Z M 126.113281 167.0625 " clip-rule="nonzero"/></clipPath><clipPath id="9f997eccc7"><path d="M 134.273438 159.515625 L 164.417969 159.515625 L 164.417969 185.070312 L 134.273438 185.070312 Z M 134.273438 159.515625 " clip-rule="nonzero"/></clipPath><clipPath id="9e67770d61"><path d="M 149.316406 159.515625 C 141.007812 159.515625 134.273438 165.238281 134.273438 172.292969 C 134.273438 179.351562 141.007812 185.070312 149.316406 185.070312 C 157.628906 185.070312 164.363281 179.351562 164.363281 172.292969 C 164.363281 165.238281 157.628906 159.515625 149.316406 159.515625 Z M 149.316406 159.515625 " clip-rule="nonzero"/></clipPath><clipPath id="d9fc1be57b"><path d="M 78.121094 187.300781 L 220.621094 187.300781 L 220.621094 230.050781 L 78.121094 230.050781 Z M 78.121094 187.300781 " clip-rule="nonzero"/></clipPath><clipPath id="2a575be555"><path d="M 138.714844 219.890625 L 168.863281 219.890625 L 168.863281 245.445312 L 138.714844 245.445312 Z M 138.714844 219.890625 " clip-rule="nonzero"/></clipPath><clipPath id="3b70aa006b"><path d="M 153.761719 219.890625 C 145.449219 219.890625 138.714844 225.609375 138.714844 232.667969 C 138.714844 239.722656 145.449219 245.445312 153.761719 245.445312 C 162.070312 245.445312 168.804688 239.722656 168.804688 232.667969 C 168.804688 225.609375 162.070312 219.890625 153.761719 219.890625 Z M 153.761719 219.890625 " clip-rule="nonzero"/></clipPath></defs><rect x="-37.5" width="450" fill="#ffffff" y="-37.499999" height="449.999989" fill-opacity="1"/><rect x="-37.5" width="450" fill="#ffffff" y="-37.499999" height="449.999989" fill-opacity="1"/><g clip-path="url(#0f436650a4)"><path fill="#ee2028" d="M 161.648438 91.820312 L 187.375 117.597656 L 213.101562 91.820312 C 239.492188 65.378906 282.679688 65.378906 309.058594 91.820312 C 335.445312 118.261719 335.445312 161.519531 309.058594 187.960938 L 187.375 309.878906 L 167.5625 290.027344 C 208.128906 249.390625 248.6875 208.757812 289.253906 168.109375 C 304.714844 152.621094 304.714844 127.148438 289.253906 111.660156 C 273.796875 96.171875 248.371094 96.171875 232.914062 111.660156 L 149.308594 195.425781 L 102.605469 148.65625 C 97.132812 143.175781 97.132812 134.285156 102.605469 128.804688 C 108.078125 123.324219 116.949219 123.324219 122.417969 128.804688 L 149.308594 155.746094 L 167.574219 137.445312 L 141.847656 111.671875 C 126.386719 96.183594 100.964844 96.183594 85.503906 111.671875 C 70.046875 127.160156 70.046875 152.632812 85.503906 168.121094 L 149.308594 232.050781 L 252.34375 128.816406 C 257.8125 123.335938 266.683594 123.335938 272.15625 128.816406 C 277.625 134.296875 277.625 143.183594 272.15625 148.667969 C 231.203125 189.675781 190.25 230.707031 149.308594 271.726562 L 65.691406 187.960938 C 39.304688 161.519531 39.304688 118.261719 65.691406 91.820312 C 92.082031 65.378906 135.257812 65.378906 161.648438 91.820312 " fill-opacity="1" fill-rule="evenodd"/></g><g clip-path="url(#795f734d8a)"><g clip-path="url(#e823c9263f)"><path fill="#ffffff" d="M 134.273438 170.566406 L 164.320312 170.566406 L 164.320312 196.121094 L 134.273438 196.121094 Z M 134.273438 170.566406 " fill-opacity="1" fill-rule="nonzero"/></g></g><g clip-path="url(#9d40eaddb3)"><path fill="#ee2028" d="M 166.429688 166.777344 L 172.609375 169.21875 C 170.785156 173.835938 167.65625 177.78125 163.558594 180.617188 C 159.363281 183.523438 154.4375 185.0625 149.316406 185.0625 C 144.195312 185.0625 139.269531 183.523438 135.070312 180.617188 C 130.972656 177.78125 127.84375 173.835938 126.019531 169.21875 L 132.199219 166.777344 C 134.992188 173.847656 141.710938 178.417969 149.316406 178.417969 C 156.921875 178.417969 163.636719 173.847656 166.429688 166.777344 Z M 166.429688 166.777344 " fill-opacity="1" fill-rule="nonzero"/></g><g clip-path="url(#9f997eccc7)"><g clip-path="url(#9e67770d61)"><path fill="#ee2028" d="M 134.273438 159.515625 L 164.320312 159.515625 L 164.320312 185.070312 L 134.273438 185.070312 Z M 134.273438 159.515625 " fill-opacity="1" fill-rule="nonzero"/></g></g><g clip-path="url(#d9fc1be57b)"><path fill="#ee2028" d="M 201.703125 174.078125 L 220.621094 181.546875 C 215.039062 195.6875 205.457031 207.753906 192.917969 216.441406 C 180.074219 225.34375 164.992188 230.046875 149.3125 230.046875 C 133.636719 230.046875 118.554688 225.34375 105.707031 216.441406 C 93.167969 207.753906 83.585938 195.6875 78.003906 181.546875 L 96.921875 174.078125 C 105.472656 195.722656 126.035156 209.707031 149.3125 209.707031 C 172.59375 209.707031 193.15625 195.722656 201.707031 174.078125 Z M 201.703125 174.078125 " fill-opacity="1" fill-rule="nonzero"/></g><g clip-path="url(#2a575be555)"><g clip-path="url(#3b70aa006b)"><path fill="#ee2028" d="M 138.714844 219.890625 L 168.761719 219.890625 L 168.761719 245.445312 L 138.714844 245.445312 Z M 138.714844 219.890625 " fill-opacity="1" fill-rule="nonzero"/></g></g></svg>